<?xml version="1.0" encoding="iso-8859-1"?>
<!-- Generator: Adobe Illustrator 16.0.0, SVG Export Plug-In . SVG Version: 6.00 Build 0)  -->
<!DOCTYPE svg PUBLIC "-//W3C//DTD SVG 1.1//EN" "http://www.w3.org/Graphics/SVG/1.1/DTD/svg11.dtd">
<svg version="1.1" id="Capa_1" xmlns="http://www.w3.org/2000/svg" xmlns:xlink="http://www.w3.org/1999/xlink" x="0px" y="0px"
	 width="612.006px" height="612.006px" viewBox="0 0 612.006 612.006" style="enable-background:new 0 0 612.006 612.006;"
	 xml:space="preserve">
<g>
	<g>
		<g>
			<path d="M292.911,318.872H14.833C6.639,318.872,0,312.232,0,304.04c0-8.194,6.639-14.833,14.833-14.833h278.078
				c8.194,0,14.833,6.639,14.833,14.833C307.744,312.232,301.105,318.872,292.911,318.872z"/>
			<path d="M597.167,318.872H449.638c-8.193,0-14.833-6.64-14.833-14.833c0-8.194,6.64-14.833,14.833-14.833h147.529
				c8.193,0,14.833,6.639,14.833,14.833C612,312.232,605.36,318.872,597.167,318.872z"/>
			<path d="M214.545,506.712H14.833C6.639,506.712,0,500.072,0,491.88c0-8.193,6.639-14.834,14.833-14.834h199.712
				c8.194,0,14.833,6.641,14.833,14.834C229.378,500.072,222.739,506.712,214.545,506.712z"/>
			<path d="M597.167,506.712H371.266c-8.193,0-14.833-6.64-14.833-14.833c0-8.192,6.64-14.833,14.833-14.833h225.901
				c8.193,0,14.833,6.641,14.833,14.833C612,500.072,605.36,506.712,597.167,506.712z"/>
			<path d="M129.368,134.96H14.833C6.639,134.96,0,128.32,0,120.127s6.639-14.833,14.833-14.833h114.535
				c8.193,0,14.833,6.639,14.833,14.833S137.562,134.96,129.368,134.96z"/>
			<path d="M597.167,134.96H286.1c-8.194,0-14.833-6.639-14.833-14.833s6.639-14.833,14.833-14.833h311.073
				c8.193,0,14.833,6.639,14.833,14.833C612,128.32,605.36,134.96,597.167,134.96z"/>
			<path d="M175.635,181.215c-33.695,0-61.101-27.406-61.101-61.1c0-33.683,27.406-61.089,61.101-61.089
				c33.683,0,61.088,27.406,61.088,61.089C236.718,153.81,209.312,181.215,175.635,181.215z M175.635,88.693
				c-17.331,0-31.434,14.097-31.434,31.422c0,17.331,14.103,31.434,31.434,31.434c17.325,0,31.422-14.104,31.422-31.434
				C207.052,102.791,192.954,88.693,175.635,88.693z"/>
			<path d="M257.709,552.979c-33.695,0-61.1-27.406-61.1-61.102c0-33.688,27.405-61.095,61.1-61.095
				c33.689,0,61.094,27.406,61.094,61.095C318.798,525.573,291.393,552.979,257.709,552.979z M257.709,460.45
				c-17.331,0-31.434,14.099-31.434,31.43c0,17.33,14.103,31.435,31.434,31.435s31.428-14.104,31.428-31.435
				C289.137,474.549,275.035,460.45,257.709,460.45z"/>
			<path d="M339.173,365.121c-33.689,0-61.095-27.404-61.095-61.094c0-33.683,27.406-61.089,61.095-61.089
				c33.688,0,61.094,27.406,61.094,61.089C400.267,337.716,372.861,365.121,339.173,365.121z M339.173,272.605
				c-17.331,0-31.429,14.097-31.429,31.422c0,17.331,14.098,31.428,31.429,31.428s31.428-14.097,31.428-31.428
				C370.601,286.702,356.504,272.605,339.173,272.605z"/>
		</g>
	</g>
</g>
<g>
</g>
<g>
</g>
<g>
</g>
<g>
</g>
<g>
</g>
<g>
</g>
<g>
</g>
<g>
</g>
<g>
</g>
<g>
</g>
<g>
</g>
<g>
</g>
<g>
</g>
<g>
</g>
<g>
</g>
</svg>
