<?xml version="1.0" ?><svg height="500" id="svg2" version="1.1" width="500" xmlns="http://www.w3.org/2000/svg" xmlns:cc="http://creativecommons.org/ns#" xmlns:dc="http://purl.org/dc/elements/1.1/" xmlns:inkscape="http://www.inkscape.org/namespaces/inkscape" xmlns:rdf="http://www.w3.org/1999/02/22-rdf-syntax-ns#" xmlns:sodipodi="http://sodipodi.sourceforge.net/DTD/sodipodi-0.dtd" xmlns:svg="http://www.w3.org/2000/svg"><defs id="defs4"/><g id="layer1" transform="translate(0,-552.36218)"><rect height="500" id="rect3758-1" rx="250" ry="250" style="fill:#d73d32;fill-opacity:1;stroke:none" width="500" x="0" y="552.36218"/><path d="m 210,642.36218 c -11.91384,0.003 -24.1062,1.2772 -36.15789,3.84211 -17.81907,3.97783 -32.42805,13.45652 -44.60527,27.68421 -12.17969,14.1046 -18.47621,29.76099 -18.47368,47.71052 -0.003,18.97352 7.19931,35.13037 20.78947,47.68421 13.71813,12.57846 30.13531,18.44737 49.23684,18.44737 3.84493,0 7.90801,-0.12318 13.05264,-0.76316 -0.27078,1.03384 -0.12317,2.04519 -0.76316,3.84211 -0.66462,1.67385 -1.13247,3.59772 -1.52632,4.63158 -0.39385,1.00922 -1.30818,2.29132 -1.57895,3.8421 -0.24613,1.40308 0,2.31595 0,3.84211 0,8.46768 4.11888,18.6047 12.31579,29.26316 -9.72307,0.24613 -19.72376,0.73701 -29.21052,2.26315 -9.48677,1.4277 -19.61479,3.74737 -30,6.94737 -10.38277,3.07693 -19.47744,7.78502 -27.68421,13.81579 -8.20431,5.90769 -14.37031,12.59257 -18.473687,20.78948 C 92.177673,885.6812 90,894.53279 90,902.33586 c 0,8.61538 1.547359,16.18834 5.394737,23.10527 3.844932,7.03999 9.342593,13.32727 15.368423,17.68421 6.02338,4.47998 12.96916,7.80931 20.78947,10.76316 7.9483,3.07691 15.36032,5.64283 23.05263,6.94736 7.8203,1.28014 15.51466,1.52632 23.07895,1.52632 34.35075,0 61.2678,-8.60705 80.76316,-25.39474 17.9446,-15.65537 26.94909,-33.31289 26.97368,-53.8421 -0.0247,-7.31076 -0.9145,-14.45993 -3.10526,-20.73684 -2.04307,-6.42463 -5.00122,-11.70591 -8.44737,-16.21053 -3.34769,-4.60307 -6.6787,-8.44947 -10.78947,-12.28947 -4.08614,-3.96307 -8.20502,-7.56315 -12.31579,-10.76316 -4.08614,-3.2 -8.08186,-6.28299 -11.55263,-9.23684 -3.32308,-2.95386 -6.25491,-6.01052 -8.42106,-9.21053 -2.06769,-3.2 -3.07894,-6.67693 -3.07894,-10 0,-4.6277 1.65142,-9.11758 4.60526,-13.10526 2.95385,-4.08615 6.5293,-7.80941 10.76316,-11.52632 4.23384,-3.86461 8.84511,-7.80947 13.07894,-12.28947 4.23387,-4.50462 7.80931,-10.39484 10.76316,-17.71053 2.92922,-7.43876 3.86842,-15.88166 3.86842,-25.36842 0,-11.28121 -1.95214,-22.69619 -6.97368,-33.07895 -4.99692,-10.38769 -12.41694,-18.09859 -21.5,-23.86842 l 26.15789,0 26.13158,-15.36842 -84.60526,0 z m -26.13158,13.84211 c 8.45539,0.003 16.2588,2.42637 23.05263,7.68421 6.91693,5.25538 12.29157,11.94756 16.13158,20.02631 3.98768,8.0763 7.22009,16.64968 9.26316,25.36842 2.19076,8.59077 3.07895,16.93682 3.07895,24.63158 0,12.82953 -2.81215,22.93549 -8.47369,30.76316 -5.48922,7.67999 -14.46397,11.52632 -26.89473,11.52632 -6.54769,0 -12.5783,-1.28219 -18.47369,-4.60527 -5.89783,-3.32307 -11.29383,-7.83589 -15.39474,-13.07895 -4.1034,-5.39077 -7.68622,-11.798 -10.76315,-18.47368 -3.07692,-6.66584 -5.38259,-13.30293 -6.92106,-19.97368 -1.41044,-6.66585 -2.3421,-12.47416 -2.3421,-18.5 0,-12.30769 3.48847,-23.44272 10.02631,-32.28948 6.53784,-8.84677 15.78685,-13.07642 27.71053,-13.07894 z m 152.28947,60 0,49.23684 -49.23684,0 0,24.60526 49.23684,0 0,49.23684 24.60527,0 0,-49.23684 49.23684,0 0,-24.60526 -49.23684,0 0,-49.23684 -24.60527,0 z M 209.63158,843.78323 c 1.69845,-0.0339 3.12744,-0.004 4.21053,0.13158 0.76308,0.4923 2.31782,1.65134 5.39473,3.84211 3.2,2.16615 5.12405,3.81586 6.1579,4.57894 1.15691,0.7877 3.30081,2.46712 6.13158,4.6579 2.95383,2.16614 5.00097,3.44834 6.15789,4.60526 1.28001,1.03385 3.08089,3.17765 5.39474,5.36842 2.28921,2.19077 4.36089,3.7209 5.39473,5.39474 1.13232,1.52616 2.29134,3.84404 3.84211,6.15789 1.64923,2.28923 3.20212,3.94082 3.8421,6.13158 0.64001,2.04309 1.03402,4.38737 1.52632,6.94737 0.66462,2.43693 0.76316,4.97652 0.76316,7.68421 0,8.07385 -1.77458,15.52018 -5.36842,21.52632 -3.47076,6.03077 -7.83767,10.51903 -13.86842,13.8421 -6.00616,3.47077 -13.05676,6.15977 -19.97369,7.71053 -6.79383,1.64924 -13.96939,2.28947 -21.52631,2.28947 -8.19691,0 -16.55528,-1.13264 -24.63158,-3.05263 -8.0763,-1.92001 -15.64265,-4.48599 -23.07895,-8.47368 -7.3083,-3.83999 -13.07129,-9.24098 -17.68421,-16.1579 -4.48737,-6.79384 -6.92105,-14.33881 -6.92105,-23.05263 0,-7.70463 1.90749,-14.75869 5.36842,-20.78947 3.46337,-6.03076 7.69309,-11.0114 13.07895,-14.60527 5.38336,-3.59384 12.05653,-6.15813 19.23684,-8.44736 7.17783,-2.31386 14.12363,-4.50858 20.78947,-5.39474 6.65848,-0.91076 13.05676,-0.76316 19.97369,-0.76316 2.11691,0 4.09101,-0.0976 5.78947,-0.13158 z" id="rect3829" style="opacity:1;fill:#ffffff;fill-opacity:1;stroke:none"/><g id="layer1-9" transform="translate(-549.00515,80.294372)"/><g id="layer1-1" transform="matrix(1.0012822,0,0,1.0012822,-569.09131,22.083407)"/></g></svg>